Coordinates
version=1
nRows=16
nColumns=40
inDegrees=yes

Units are S.I. units (second, meters, Newtons, ...)
Angles are in degrees.

endheader
time	pelvis_tilt	pelvis_list	pelvis_rotation	pelvis_tx	pelvis_ty	pelvis_tz	hip_flexion_r	hip_adduction_r	hip_rotation_r	knee_angle_r	knee_angle_r_beta	ankle_angle_r	subtalar_angle_r	mtp_angle_r	hip_flexion_l	hip_adduction_l	hip_rotation_l	knee_angle_l	knee_angle_l_beta	ankle_angle_l	subtalar_angle_l	mtp_angle_l	lumbar_extension	lumbar_bending	lumbar_rotation	arm_flex_r	arm_add_r	arm_rot_r	elbow_flex_r	pro_sup_r	wrist_flex_r	wrist_dev_r	arm_flex_l	arm_add_l	arm_rot_l	elbow_flex_l	pro_sup_l	wrist_flex_l	wrist_dev_l
      7.09000000	     -3.67539781	     -4.60501761	      4.16729392	      0.76115929	      0.92860855	      0.49408747	     14.02113285	      2.92336455	    -15.22217300	     19.87082239	     19.87082239	     11.12743750	     -2.51514171	     -2.66410445	     26.13143750	    -10.95335976	      3.10973210	     67.14407481	     67.14407481	      3.53868713	    -15.37294471	      5.17170436	     -8.98340944	      4.94706969	      0.84185174	      2.76755136	    -17.99482581	     -3.92291764	     67.35224652	     45.48553107	      0.00000000	      0.00000000	      5.40789909	     -9.47949416	     -6.00895331	     41.73587658	     45.30059922	      0.00000000	      0.00000000
      7.10350000	     -3.79129957	     -4.43185028	      4.53966750	      0.75940797	      0.92942352	      0.49479308	     13.33520062	      2.89890368	    -15.37988098	     19.08068508	     19.08068508	     11.22723297	     -2.38925112	     -2.55799677	     27.71439067	    -10.52788006	      3.38570942	     66.36757315	     66.36757315	      3.75945529	    -15.75479484	      5.25017836	     -9.05017888	      4.72437784	      0.82289418	      4.97095287	    -18.01388378	     -4.07462817	     69.04222761	     45.44287066	      0.00000000	      0.00000000	      4.37407085	     -9.28143511	     -5.90353525	     40.49223668	     45.28431819	      0.00000000	      0.00000000
      7.11700000	     -3.89275423	     -4.28987777	      4.89518543	      0.75762841	      0.93007200	      0.49549500	     12.72176886	      2.88632433	    -15.57255113	     18.45424593	     18.45424593	     11.36077819	     -2.30149955	     -2.57020943	     29.19275657	    -10.16315022	      3.56786447	     65.37119126	     65.37119126	      4.02418721	    -15.99692209	      5.38452803	     -9.16825611	      4.57083065	      0.88172227	      7.09383601	    -18.22346915	     -4.04318402	     71.12612068	     45.38086703	      0.00000000	      0.00000000	      3.43226416	     -9.04761286	     -5.80382675	     39.15058471	     45.27385056	      0.00000000	      0.00000000
      7.13050000	     -3.99905582	     -4.16722481	      5.25791550	      0.75587347	      0.93069665	      0.49614453	     12.09579360	      2.90664256	    -15.74081614	     17.77871193	     17.77871193	     11.46161722	     -2.21238326	     -2.58649779	     30.52594183	     -9.75822729	      3.77387003	     63.99897473	     63.99897473	      4.27983419	    -16.21364072	      5.62739886	     -9.28843010	      4.42463149	      0.98416927	      9.15645717	    -18.44674238	     -4.01822727	     73.19674263	     45.32033396	      0.00000000	      0.00000000	      2.51919460	     -8.81726530	     -5.68215592	     37.91128813	     45.25979525	      0.00000000	      0.00000000
      7.14400000	     -4.13256048	     -4.02186996	      5.59013233	      0.75409853	      0.93116816	      0.49670114	     11.49501315	      2.89250617	    -15.91977564	     17.08082757	     17.08082757	     11.46802146	     -2.05583026	     -2.95883893	     31.72947628	     -9.33561013	      3.86027653	     62.23579980	     62.23579980	      4.70373461	    -16.29036181	      6.02132725	     -9.41792078	      4.28781948	      1.43237045	     10.73570857	    -19.20652472	     -3.53833986	     76.06225183	     45.22071790	      0.00000000	      0.00000000	      2.12240982	     -8.49004700	     -5.50729176	     35.93321625	     45.28032135	      0.00000000	      0.00000000
      7.15750000	     -4.26619515	     -3.93012928	      5.92690505	      0.75236891	      0.93159277	      0.49721567	     10.88945928	      2.95676853	    -16.08845946	     16.35706391	     16.35706391	     11.56363822	     -1.99245317	     -2.94656053	     32.76085642	     -8.96516267	      3.88797296	     59.97542887	     59.97542887	      5.00638166	    -16.35063252	      6.23408264	     -9.48479432	      4.18460947	      1.51075238	     12.94919354	    -19.22691586	     -3.88812716	     77.71301098	     45.18950944	      0.00000000	      0.00000000	      1.12728161	     -8.34540667	     -5.34888471	     35.08939427	     45.25824426	      0.00000000	      0.00000000
      7.17100000	     -4.44258854	     -3.80784581	      6.23211833	      0.75064336	      0.93185578	      0.49763318	     10.34126666	      2.97364836	    -16.23582335	     15.65827169	     15.65827169	     11.67761446	     -1.88282755	     -2.96204031	     33.62155093	     -8.54310487	      3.82766927	     57.20773592	     57.20773592	      5.38837848	    -16.29756986	      6.38639702	     -9.53064654	      4.03775733	      1.66327142	     15.07269539	    -19.33657705	     -4.09407436	     79.35491708	     45.15320188	      0.00000000	      0.00000000	      0.20343577	     -8.21208165	     -5.18550931	     34.34138755	     45.23205569	      0.00000000	      0.00000000
      7.18450000	     -4.59901420	     -3.75955662	      6.57447842	      0.74899125	      0.93197329	      0.49791162	      9.72759980	      3.07265966	    -16.48474751	     14.86182760	     14.86182760	     11.74371339	     -1.65073357	     -3.07720204	     34.26082867	     -8.13835928	      3.82698831	     53.94657281	     53.94657281	      5.82367069	    -16.14957609	      6.33241704	     -9.59615535	      3.97912107	      1.63183477	     17.19500437	    -19.35601577	     -4.08483224	     81.43805449	     45.09676185	      0.00000000	      0.00000000	     -0.72489392	     -8.09265180	     -4.92548896	     33.45387933	     45.19638816	      0.00000000	      0.00000000
      7.19800000	     -4.78447767	     -3.67875990	      6.86487916	      0.74731921	      0.93196904	      0.49812382	      9.18500861	      3.12242644	    -16.68021650	     14.14681013	     14.14681013	     11.83833670	     -1.44762571	     -3.21707810	     34.69629079	     -7.73268753	      3.65301604	     50.19745758	     50.19745758	      6.24921785	    -15.79779589	      6.25842180	     -9.61851268	      3.86032368	      1.73358558	     19.24540813	    -19.43069139	     -4.07700293	     83.32247709	     45.04688285	      0.00000000	      0.00000000	     -1.59091857	     -8.00175865	     -4.67981361	     32.74587288	     45.16052461	      0.00000000	      0.00000000
      7.21150000	     -4.99759909	     -3.64994709	      7.14644667	      0.74571059	      0.93172134	      0.49824617	      8.68698157	      3.21686248	    -16.88601945	     13.45884821	     13.45884821	     11.95667321	     -1.21958727	     -3.39696277	     34.96230017	     -7.34649108	      3.48557028	     46.07945396	     46.07945396	      6.72045035	    -15.23272477	      6.14728116	     -9.59415551	      3.79122213	      1.83570549	     21.30101038	    -19.47934337	     -4.04536286	     85.19531302	     44.99704517	      0.00000000	      0.00000000	     -2.46304582	     -7.90142431	     -4.42575202	     32.11928517	     45.12164366	      0.00000000	      0.00000000
      7.22500000	     -5.18096046	     -3.72095968	      7.43638286	      0.74422944	      0.93121807	      0.49819180	      8.11617581	      3.40590582	    -17.26801556	     12.67041881	     12.67041881	     11.79527150	     -0.81629249	     -4.50687965	     34.94732563	     -7.03124967	      3.34240552	     41.50001281	     41.50001281	      6.26270108	    -14.87248112	      3.76123883	     -9.61492441	      3.89116297	      2.08271925	     23.05734343	    -19.97057310	     -3.51408344	     87.95482780	     44.92580891	      0.00000000	      0.00000000	     -3.17908933	     -7.86718308	     -3.17599677	     31.36412707	     44.99801426	      0.00000000	      0.00000000
      7.23850000	     -5.40692088	     -3.72776253	      7.68508660	      0.74283621	      0.93060486	      0.49815271	      7.70192903	      3.52145203	    -17.37227824	     12.14039794	     12.14039794	     12.00996380	     -0.74142804	     -4.57651520	     34.86894347	     -6.65761142	      3.10373214	     36.98268385	     36.98268385	      6.87159284	    -13.72674152	      4.16018019	     -9.51481125	      3.83224258	      2.21766233	     25.11963444	    -19.82889478	     -3.72853729	     89.34123822	     44.90012234	      0.00000000	      0.00000000	     -4.04146192	     -7.78116366	     -3.01136721	     30.96289782	     44.96959994	      0.00000000	      0.00000000
      7.25200000	     -5.53706754	     -3.87151218	      7.96699988	      0.74162315	      0.92990155	      0.49799099	      7.13099089	      3.79736459	    -17.65623490	     11.49598791	     11.49598791	     12.17973794	     -0.41449965	     -4.76897053	     34.62897380	     -6.38338883	      2.98164271	     32.55445561	     32.55445561	      7.43380036	    -12.40323444	      4.62563555	     -9.53197357	      3.96208401	      2.10829544	     27.25613266	    -19.52938347	     -3.65489161	     91.18272205	     44.85365452	      0.00000000	      0.00000000	     -4.95006561	     -7.63463448	     -2.74279875	     30.53249653	     44.93033176	      0.00000000	      0.00000000
      7.26550000	     -5.65978027	     -3.98450852	      8.18070619	      0.74064115	      0.92903633	      0.49778980	      6.61405896	      4.02032279	    -17.84040368	     11.01879130	     11.01879130	     12.42217109	     -0.17045730	     -5.00190684	     34.29984657	     -6.12561566	      2.68360507	     28.36128450	     28.36128450	      7.98629148	    -10.91679711	      5.29435435	     -9.48996224	      4.02196792	      2.17582050	     29.19874870	    -19.34613466	     -3.55253531	     92.72337463	     44.81434417	      0.00000000	      0.00000000	     -5.78709075	     -7.55140955	     -2.54772271	     30.17486058	     44.89992968	      0.00000000	      0.00000000
      7.27900000	     -5.78296172	     -4.14118976	      8.40711588	      0.73982636	      0.92801925	      0.49745453	      6.11747405	      4.28088987	    -18.02419869	     10.58590694	     10.58590694	     12.68253242	      0.04567850	     -5.22641550	     34.01910102	     -5.89157273	      2.38556581	     24.65074733	     24.65074733	      8.44920851	     -9.41432070	      6.07822728	     -9.41856745	      4.14206775	      2.25539230	     31.09447263	    -19.15183141	     -3.46641653	     94.13967032	     44.77847469	      0.00000000	      0.00000000	     -6.53755392	     -7.41653602	     -2.39134287	     29.83621100	     44.87386095	      0.00000000	      0.00000000
      7.29250000	     -5.81602026	     -4.36699535	      8.63192171	      0.73925157	      0.92702352	      0.49705860	      5.46528903	      4.61883698	    -18.44593978	     10.03929981	     10.03929981	     12.76586259	      0.65294485	     -5.98455831	     33.86058294	     -5.78247088	      1.92425739	     21.85183360	     21.85183360	      9.70689142	     -7.52390209	      8.61817985	     -9.44230099	      4.35487926	      2.14465154	     32.99408040	    -18.99736522	     -2.71264022	     95.80888608	     44.74303578	      0.00000000	      0.00000000	     -7.44357107	     -7.38371933	     -1.77635025	     29.71388822	     44.83407394	      0.00000000	      0.00000000
